<svg xmlns="http://www.w3.org/2000/svg" height="40px" viewBox="0 -960 960 960" width="40px" fill="#e3e3e3"><path d="M567.33-325.33H634V-448h122v-66.67H634v-122h-66.67v122H444.67V-448h122.66v122.67Zm-332 182.66Q129-183.33 64.5-275.34 0-367.34 0-480.51 0-593.67 64.83-685.5q64.84-91.83 170.5-132.5v74.67q-77.33 35.66-123 106.8-45.66 71.13-45.66 155.86 0 85.67 45.66 156.34 45.67 70.66 123 107v74.66Zm224.17-6.5q-65.5-28.5-114-77t-77-114q-28.5-65.5-28.5-140.5t28.5-140.5q28.5-65.5 77-114t114-77q65.5-28.5 140.5-28.5t140.5 28.5q65.5 28.5 114 77t77 114q28.5 65.5 28.5 140.5t-28.5 140.5q-28.5 65.5-77 114t-114 77q-65.5 28.5-140.5 28.5t-140.5-28.5ZM600-480.67Zm.33 293.34q122 0 207.5-85.38 85.5-85.39 85.5-207.96 0-121.66-85.38-207.5Q722.57-774 600-774q-121.67 0-207.5 85.83-85.83 85.84-85.83 207.5 0 122.57 85.83 207.96 85.83 85.38 207.83 85.38Z"/></svg>