<svg xmlns="http://www.w3.org/2000/svg" height="40px" viewBox="0 -960 960 960" width="40px" fill="#ffffff"><path d="M186.67-120q-27 0-46.84-19.83Q120-159.67 120-186.67v-168h66.67v168h168V-120h-168Zm418.66 0v-66.67h168v-168H840v168q0 27-19.83 46.84Q800.33-120 773.33-120h-168ZM120-605.33v-168q0-27 19.83-46.84Q159.67-840 186.67-840h168v66.67h-168v168H120Zm653.33 0v-168h-168V-840h168q27 0 46.84 19.83Q840-800.33 840-773.33v168h-66.67ZM344.5-344.5q-55.83-55.83-55.83-135.5t55.83-135.5q55.83-55.83 135.5-55.83t135.5 55.83q55.83 55.83 55.83 135.5T615.5-344.5q-55.83 55.83-135.5 55.83T344.5-344.5Zm224.17-46.83q36-36 36-88.67t-36-88.67q-36-36-88.67-36t-88.67 36q-36 36-36 88.67t36 88.67q36 36 88.67 36t88.67-36ZM480-480Z"/></svg>